<svg xmlns="http://www.w3.org/2000/svg" width="136" height="32" viewBox="0 0 136 32">
    <g fill="#B71F20" fill-rule="nonzero">
        <path d="M14.96 26.222l-3.944-9.93H8.432v9.93H0V.183h13.781c2.358 0 4.987.32 6.982 1.602 2.266 1.373 3.309 3.66 3.309 6.223 0 3.433-1.587 5.446-4.76 6.865l4.896 11.349H14.96zm-3.49-15.56c1.813 0 3.989-.274 3.989-2.516 0-.87-.454-1.693-1.315-2.105-.725-.32-1.587-.32-2.357-.32H8.432v4.987h3.037v-.045zM35.541 26.222H27.7V6.819h7.797v19.403zM52.043 26.222v-2.563h-.091c-1.133 2.105-2.856 2.975-5.35 2.975-5.802 0-7.797-5.217-7.797-9.976 0-4.989 1.995-10.16 8.07-10.16 1.949 0 3.581.778 4.805 1.968V.23h7.797v26.039h-7.434v-.046zm-.408-12.036c0-.778.045-1.647-.499-2.288-.363-.503-1.088-.778-1.677-.778-1.36 0-1.995.87-2.222 2.06-.226 1.052-.408 2.517-.408 3.615 0 1.693.136 4.76 2.584 4.76.771 0 1.315-.321 1.723-.962.544-.824.499-1.51.499-2.471v-3.936zM75.344 26.222v-2.563h-.09c-1.134 2.105-2.857 2.975-5.35 2.975-5.803 0-7.797-5.217-7.797-9.976 0-4.989 1.994-10.16 8.069-10.16 1.95 0 3.581.778 4.805 1.968V.23h7.798v26.039h-7.435v-.046zm-.408-12.036c0-.778.045-1.647-.453-2.288-.363-.503-1.043-.778-1.678-.778-1.405 0-1.994.87-2.221 2.06-.227 1.052-.408 2.517-.408 3.615 0 1.693.136 4.76 2.584 4.76.77 0 1.315-.321 1.723-.962.544-.824.453-1.51.453-2.471v-3.936zM107.395 19.724c-1.224 4.713-5.576 6.864-10.336 6.864-2.947 0-5.848-.595-8.115-2.563-2.176-1.876-3.31-4.53-3.31-7.276 0-2.608 1.043-5.446 2.947-7.322 2.04-2.06 5.123-3.02 8.024-3.02 6.71 0 10.835 4.164 10.835 10.571v1.007H93.93c-.135 2.105.68 3.615 3.038 3.615 1.768 0 2.765-.686 3.083-2.334l7.344.458zm-7.888-5.492c0-1.876-.635-3.34-2.856-3.34-2.04 0-2.902 1.555-2.811 3.34h5.667zM118.592 26.222h-7.797V.183h7.797zM130.197 26.222h-7.842V.183h7.842zM131.875 23.842c.09-.228.272-.457.453-.64a1.9 1.9 0 0 1 .635-.412 2.1 2.1 0 0 1 .77-.137 2.1 2.1 0 0 1 .771.137 1.9 1.9 0 0 1 .635.412c.181.183.317.412.453.64.09.23.181.504.181.778 0 .275-.045.55-.181.824-.09.229-.272.458-.453.64a1.9 1.9 0 0 1-.635.413 2.1 2.1 0 0 1-.77.137 2.1 2.1 0 0 1-.771-.137 1.9 1.9 0 0 1-.635-.412c-.181-.183-.317-.412-.453-.64a2.236 2.236 0 0 1-.136-.825c-.046-.274 0-.549.136-.778zm.317 1.465c.09.229.181.412.363.549.136.137.317.275.544.366.226.092.408.137.634.137.227 0 .454-.045.635-.137.181-.091.363-.229.499-.366.136-.137.272-.32.362-.55.091-.228.136-.457.136-.686 0-.228-.045-.457-.136-.686a1.45 1.45 0 0 0-.362-.55 2.014 2.014 0 0 0-.499-.365 1.437 1.437 0 0 0-.635-.138c-.226 0-.453.046-.634.138a3.779 3.779 0 0 0-.544.366c-.136.137-.272.32-.363.549-.09.229-.136.412-.136.686 0 .275.045.504.136.687zm1.632-1.83c.272 0 .499.045.635.182.136.092.181.275.181.504 0 .229-.045.366-.181.457a1.35 1.35 0 0 1-.454.183l.68 1.053h-.408l-.634-1.007h-.363v1.007h-.363v-2.334h.907v-.046zm-.136 1.052h.227c.09 0 .136 0 .181-.046.045-.046.09-.046.136-.137.045-.046.045-.138.045-.23 0-.09 0-.136-.045-.182-.045-.046-.09-.092-.136-.092-.045-.045-.09-.045-.181-.045h-.635v.732h.408z"/>
    </g>
</svg>
